# xmcd CD database file
#
# Track frame offsets:
#	150
#	22887
#	45410
#	74960
#	109105
#	133745
#	170415
#	211122
#	232850
#
# Disc length: 3341 seconds
#
# Revision: 0
# Processed by: cddbd v1.4PL0 Copyright (c) Steve Scherf et al.
# Submitted via: CDex 1.50Beta7
#
DISCID=750d0b09
DTITLE=Joe Locke - Mission Impossible
DYEAR=1900
DGENRE=Jazz
TTITLE0=Mission Impossible
TTITLE1=Second Story Man
TTITLE2=Falling In Love
TTITLE3=Saturn's Child
TTITLE4=Tuesday Heartbreak
TTITLE5=Song For Cables
TTITLE6=Slander
TTITLE7=Cecil B Debop
TTITLE8=Blue
EXTD=
EXTT0=
EXTT1=
EXTT2=
EXTT3=
EXTT4=
EXTT5=
EXTT6=
EXTT7=
EXTT8=
PLAYORDER=
